PathFileType	4	(X/Y/Z)	Run_300 01
DataRate	CameraRate	NumFrames	NumMarkers	Units	OrigDataRate	OrigDataStartFrame	OrigNumFrames
120	120	4	42	mm	120	558	128
Frame#	Time	LASI			RASI			LPSI			RPSI			RTH1			RTH3			LTH1			LTH2			LTH3			RTB1			RTB2			RTB3			LTB1			LTB2			LTB3			RCAL			RTOE			RMT5			LCAL			LTOE			LMT5			LACR			RACR			CLAV			C7			RUA1			RUA2			RUA3			RLEL			RMEL			LUA1			LUA2			LUA3			LLEL			LMEL			RFAsuperior			RFAradius			RFAulna			LFAsuperior			LFAradius			LFAulna			RTH2		
		X1	Y1	Z1	X2	Y2	Z2	X3	Y3	Z3	X4	Y4	Z4	X5	Y5	Z5	X6	Y6	Z6	X7	Y7	Z7	X8	Y8	Z8	X9	Y9	Z9	X10	Y10	Z10	X11	Y11	Z11	X12	Y12	Z12	X13	Y13	Z13	X14	Y14	Z14	X15	Y15	Z15	X16	Y16	Z16	X17	Y17	Z17	X18	Y18	Z18	X19	Y19	Z19	X20	Y20	Z20	X21	Y21	Z21	X22	Y22	Z22	X23	Y23	Z23	X24	Y24	Z24	X25	Y25	Z25	X26	Y26	Z26	X27	Y27	Z27	X28	Y28	Z28	X29	Y29	Z29	X30	Y30	Z30	X31	Y31	Z31	X32	Y32	Z32	X33	Y33	Z33	X34	Y34	Z34	X35	Y35	Z35	X36	Y36	Z36	X37	Y37	Z37	X38	Y38	Z38	X39	Y39	Z39	X40	Y40	Z40	X41	Y41	Z41	X42	Y42	Z42	

558	  4.650000	1065.501569	953.215617	-412.095419	1050.338102	967.481015	-171.824023	894.904831	994.309468	-361.792276	887.193727	997.820791	-262.487339	994.251640	807.709500	-127.722599	1025.270989	570.422596	-178.464459	1039.804690	785.593648	-472.532108	1157.648901	725.142011	-458.724618	1139.944627	589.749290	-449.859327	1034.171240	340.699521	-254.969614	963.984686	308.788322	-197.329338	925.677559	194.261511	-264.769047	1100.295441	423.292248	-392.111423	993.646985	445.042396	-433.981807	906.974369	395.433944	-367.962757	743.287913	100.949256	-282.755299	953.679402	 73.643207	-306.962997	937.045004	 45.029985	-199.298017	759.386559	481.790527	-346.554234	785.238389	275.486684	-329.313897	752.196650	286.391235	-432.498193	1017.747583	1448.010176	-463.339519	1037.382494	1417.337781	-95.085593	1106.456235	1388.897166	-262.571530	988.892846	1474.311206	-284.647453	1011.628118	1326.898541	-55.988994	1014.330118	1238.134018	-75.884404	927.217462	1240.693516	-53.341373	898.310409	1130.138432	-36.301181	876.827412	1128.656883	-100.690938	968.338145	1384.778733	-512.431603	902.897219	1343.428679	-474.974025	929.334201	1288.859475	-533.787459	828.191476	1220.043309	-559.570183	805.371039	1217.796975	-490.471164	982.978018	1084.700838	-32.217190	1106.187909	960.766851	-64.569639	1052.246647	916.981757	-80.990258	892.282463	1161.994900	-562.708009	1004.317739	1011.325416	-498.794979	949.520601	980.301625	-525.412561	1077.869835	668.756977	-157.350510	
559	  4.658333	1063.441421	956.523782	-412.443796	1048.946280	969.295415	-172.812772	893.197806	998.089644	-360.814598	885.748722	1001.631973	-261.914123	989.900186	809.781744	-127.356148	1010.390404	571.503981	-178.355624	1040.318751	790.697111	-473.524500	1161.409855	734.996048	-459.568133	1149.035287	599.755982	-451.540527	1013.416521	340.540305	-254.070584	942.199796	309.942642	-196.936086	902.807315	195.772061	-263.906831	1117.073054	428.293071	-392.605365	1009.346136	444.667487	-434.230966	925.347065	390.594116	-368.152552	719.389793	105.593903	-281.593710	928.845699	 74.192141	-306.604047	911.802431	 44.343437	-199.657316	772.047717	468.161021	-346.409859	811.158053	264.140132	-330.373089	777.307596	273.177926	-433.610577	1013.857071	1451.402195	-463.393769	1039.863403	1421.604597	-95.769525	1105.978274	1392.266574	-264.455957	988.059326	1477.234755	-284.497139	1014.854657	1331.339924	-56.151415	1019.156254	1242.483562	-75.366311	931.911263	1243.478449	-53.005162	905.538010	1132.281297	-35.120819	882.884771	1130.041701	-99.385859	962.544972	1389.607681	-511.538210	897.730350	1349.101613	-472.322058	921.476175	1294.594702	-532.476652	818.336089	1227.596879	-555.630147	799.055088	1224.238644	-486.042291	992.442530	1089.815104	-32.412585	1120.761181	972.811950	-68.472783	1068.785933	926.397636	-83.493432	881.361728	1168.571273	-562.074961	994.341733	1015.775471	-503.284337	938.258793	985.995238	-528.769347	1067.008470	668.080609	-157.756732	
560	  4.666667	1061.668992	960.952034	-412.819133	1048.057917	971.895147	-173.932267	891.864611	1002.688649	-359.783504	884.761653	1006.237565	-261.301325	985.484763	812.566277	-127.253726	995.569946	574.041516	-178.468744	1040.936706	796.674123	-474.461527	1164.634253	745.512227	-460.492042	1157.438661	610.590835	-453.457383	992.607329	341.821251	-253.202258	920.602857	312.933032	-195.945784	880.452071	198.529812	-262.566640	1133.171792	434.449759	-393.085146	1024.439830	444.295254	-434.497484	943.684114	385.407228	-368.508766	695.984924	111.451015	-280.008516	904.130007	 74.993678	-306.218524	886.669557	 43.657445	-200.039199	785.167985	453.015924	-346.393467	838.078741	252.378037	-331.150124	803.454981	259.036926	-434.254630	1010.044991	1455.967482	-463.409346	1042.246111	1426.857591	-96.670935	1105.500012	1396.750259	-266.480643	987.318861	1481.175786	-284.530836	1018.285439	1336.667520	-56.641895	1023.712440	1247.883717	-74.975036	936.369420	1247.678314	-52.586859	912.087731	1135.862328	-33.992286	888.982677	1133.235743	-98.402976	956.933883	1395.833134	-510.687922	892.407854	1355.846464	-469.900872	913.836184	1301.630760	-531.296192	808.759249	1236.186897	-551.720693	792.938040	1231.858260	-481.722140	1001.120463	1096.483464	-32.625359	1134.147533	986.651525	-72.920677	1084.511408	938.014205	-86.088933	870.753310	1176.575518	-561.407497	985.497023	1022.715785	-507.189442	928.432113	993.708944	-531.652493	1056.284316	668.507249	-158.555171	
561	  4.675000	1060.361514	966.172829	-413.196877	1047.856950	974.978227	-175.036701	890.980357	1007.873049	-358.849771	884.479565	1011.348349	-260.675555	981.273472	816.098239	-127.449875	981.219482	577.909346	-178.658114	1041.768725	803.327748	-475.389451	1167.460746	756.545267	-461.339816	1165.105008	621.982578	-455.600369	971.973301	344.589220	-252.494406	899.586877	317.445705	-194.588811	858.684136	202.571548	-260.998525	1148.410751	441.232304	-393.651466	1038.927597	443.848283	-434.817507	961.946569	379.913110	-369.037921	673.275861	118.652498	-278.128803	879.647948	 75.971905	-305.748356	861.644541	 43.348752	-200.046873	798.967654	436.485598	-346.489874	866.130576	240.219947	-331.858407	830.780576	244.281479	-434.493668	1006.330993	1461.586949	-463.346766	1044.511976	1432.902141	-97.786824	1105.054216	1402.234439	-268.646047	986.661814	1486.010263	-284.729838	1021.810610	1342.715844	-57.409693	1028.024407	1254.127303	-74.873745	940.561624	1253.065757	-52.137215	918.044223	1140.663913	-32.868581	894.967678	1137.982713	-97.583679	951.555010	1403.247831	-509.839057	887.244586	1363.372685	-467.639964	906.666249	1309.724139	-530.204148	799.819327	1245.593635	-548.052018	786.950081	1240.559492	-477.619921	1008.958646	1104.467539	-32.823692	1146.199840	1001.903630	-77.798566	1099.025816	951.326787	-88.668941	861.011542	1185.891823	-560.522650	977.632433	1031.589724	-510.534211	919.900438	1002.980033	-534.007519	1046.007468	670.043452	-159.655281	
